<svg xmlns="http://www.w3.org/2000/svg" id="Group_17681" data-name="Group 17681" viewBox="0 0 26.613 28">
    <defs>
        <style>
            .cls-1{fill:#fff}
        </style>
    </defs>
    <path id="Path_72" d="M34.425 5.739h-.72v-1.6A4.143 4.143 0 0 0 29.568 0h-8.687a4.143 4.143 0 0 0-4.138 4.138v1.6h-.656a4.143 4.143 0 0 0-4.137 4.139v6.673a4.143 4.143 0 0 0 4.138 4.138h.65v5.246A2.07 2.07 0 0 0 18.8 28h12.834a2.07 2.07 0 0 0 2.066-2.066v-5.246h.725a4.143 4.143 0 0 0 4.138-4.138V9.877a4.143 4.143 0 0 0-4.138-4.138zM18.3 4.138a2.576 2.576 0 0 1 2.571-2.571h8.681a2.576 2.576 0 0 1 2.571 2.571v1.6H18.3zm13.833 21.808a.5.5 0 0 1-.5.5H18.8a.5.5 0 0 1-.5-.5v-8.653h13.833zM37 16.556a2.576 2.576 0 0 1-2.571 2.571h-.72v-1.834h1.033a.783.783 0 1 0 0-1.567H15.589a.783.783 0 1 0 0 1.567h1.155v1.834h-.656a2.576 2.576 0 0 1-2.571-2.571V9.883a2.576 2.576 0 0 1 2.571-2.571h18.337A2.576 2.576 0 0 1 37 9.883z" class="cls-1" data-name="Path 72" transform="translate(-11.95)"/>
    <path id="Path_73" d="M141.433 338.967h9.976a.783.783 0 0 0 0-1.567h-9.976a.783.783 0 0 0 0 1.567z" class="cls-1" data-name="Path 73" transform="translate(-133.181 -317.82)"/>
    <path id="Path_74" d="M152.415 392.6h-9.981a.783.783 0 0 0 0 1.567h9.976a.783.783 0 0 0 .006-1.567z" class="cls-1" data-name="Path 74" transform="translate(-134.123 -369.817)"/>
    <path id="Path_75" d="M360.424 151.9h-1.59a.783.783 0 0 0 0 1.567h1.59a.783.783 0 0 0 0-1.567z" class="cls-1" data-name="Path 75" transform="translate(-337.965 -143.085)"/>
</svg>
