<svg xmlns="http://www.w3.org/2000/svg" viewBox="0 0 62.297 62.297">
    <defs>
        <style>
            .cls-1{fill:#faca92}.cls-1,.cls-2,.cls-3,.cls-5{stroke:#f89b2f}.cls-1,.cls-2{stroke-width:1.5px}.cls-2,.cls-4{fill:#fff}.cls-2,.cls-5{stroke-linecap:round;stroke-linejoin:round}.cls-3,.cls-5{fill:#f89b2f}.cls-6{fill:#504f54;opacity:.1}
        </style>
    </defs>
    <g id="Group_17765" data-name="Group 17765" transform="translate(-2911.75 -7981.75)">
        <g id="Group_17751" data-name="Group 17751">
            <path id="Path_13914" d="M30.4 0A30.4 30.4 0 1 1 0 30.4 30.4 30.4 0 0 1 30.4 0z" class="cls-1" data-name="Path 13914" transform="translate(2912.5 7982.5)"/>
        </g>
        <g id="picture_1_" data-name="picture (1)" transform="translate(2927.5 7998.5)">
            <path id="Path_13965" d="M0 0h26.21v27.3H0z" class="cls-2" data-name="Path 13965" transform="translate(2 1)"/>
            <circle id="Ellipse_25" cx="2.495" cy="2.495" r="2.495" class="cls-3" data-name="Ellipse 25" transform="translate(6.058 5.368)"/>
            <path id="Path_13964" d="M0 0h24.948v4.73H0z" class="cls-4" data-name="Path 13964" transform="translate(2.716 22.842)"/>
            <path id="Path_13926" d="M38.332 26.613l-.546-.607L31.233 20 25.5 26.28l2.994 2.994 2.193 2.193h7.645z" class="cls-5" data-name="Path 13926" transform="translate(-10.668 -8.625)"/>
            <path id="Path_13927" d="M18.28 32l-5.988-5.988L3 34.2h17.473z" class="cls-5" data-name="Path 13927" transform="translate(-.454 -11.357)"/>
        </g>
        <path id="Path_416" d="M529.2 284.306s3.471 11.471-.646 20.711-6.5 9.771-6.5 9.771l-21.024-6.338v-28.665h13.811z" class="cls-6" data-name="Path 416" transform="translate(2441.869 7718.99)"/>
    </g>
</svg>
